PathFileType	4	(X/Y/Z)	C:\Users\dbl\Desktop\LZH\BX\Trimmed_Trimmed_bx_y_5_501.trc
DataRate	CameraRate	NumFrames	NumMarkers	Units	OrigDataRate	OrigDataStartFrame	OrigNumFrames
50.00	50.00	       8	43	mm	50.00	165	       438
Frame#	Time	Top.Head			R.Acromium			L.Acromium			Sternum			R.ASIS			L.ASIS			V.Sacral			R.Thigh.Upper			R.Thigh.Front			R.Thigh.Rear			R.Knee.Lat			R.Knee.Med			R.Shank.Upper			R.Shank.Front			R.Shank.Rear			R.Ankle.Lat			R.Midfoot.Lat			R.Toe.Lat			R.Toe.Tip			R.Toe.Med			R.Ankle.Med			R.Midfoot.Sup			R.Heel			L.Thigh.Upper			L.Thigh.Front			L.Thigh.Rear			L.Knee.Lat			L.Knee.Med			L.Shank.Upper			L.Shank.Front			L.Shank.Rear			L.Ankle.Lat			L.Midfoot.Lat			L.Toe.Lat			L.Toe.Tip			L.Toe.Med			L.Ankle.Med			L.Midfoot.Sup			L.Heel			origin1 front left			origin2 front right			origin 3 back right			origin 4 back leftt			
		X1	Y1	Z1	X2	Y2	Z2	X3	Y3	Z3	X4	Y4	Z4	X5	Y5	Z5	X6	Y6	Z6	X7	Y7	Z7	X8	Y8	Z8	X9	Y9	Z9	X10	Y10	Z10	X11	Y11	Z11	X12	Y12	Z12	X13	Y13	Z13	X14	Y14	Z14	X15	Y15	Z15	X16	Y16	Z16	X17	Y17	Z17	X18	Y18	Z18	X19	Y19	Z19	X20	Y20	Z20	X21	Y21	Z21	X22	Y22	Z22	X23	Y23	Z23	X24	Y24	Z24	X25	Y25	Z25	X26	Y26	Z26	X27	Y27	Z27	X28	Y28	Z28	X29	Y29	Z29	X30	Y30	Z30	X31	Y31	Z31	X32	Y32	Z32	X33	Y33	Z33	X34	Y34	Z34	X35	Y35	Z35	X36	Y36	Z36	X37	Y37	Z37	X38	Y38	Z38	X39	Y39	Z39	X40	Y40	Z40	X41	Y41	Z41	X42	Y42	Z42	X43	Y43	Z43	

165	3.280	-116.59918	257.46063	1355.60278	-300.75430	47.40672	1239.29614	-332.57321	430.55865	1153.33130	-419.41205	247.10535	1147.91699	-751.15729	141.40588	1008.09241	-709.78705	376.94785	1013.29565	-924.76691	255.36629	1050.29797	-762.93933	91.74697	869.95868	-707.63184	148.67841	825.55359	-791.60352	82.96842	722.99139	-768.11877	120.06156	584.41382	-740.54272	227.39087	546.16370	-783.41028	118.86770	521.56042	-703.15167	169.36154	541.26819	-802.35376	121.08093	446.74176	-695.06830	141.00027	209.19002	-615.00171	79.48534	165.39098	-569.36816	54.82443	163.05869	-492.65732	99.78341	163.11552	-530.85016	148.77361	166.15866	-644.34131	213.91519	227.12137	-593.42291	188.14938	176.55620	-718.67450	211.16875	169.95274	-749.52490	438.06586	862.94928	-702.80463	375.49420	821.40979	-779.95190	453.04114	729.49060	-775.22461	419.88940	605.09351	-730.74634	311.63846	565.74573	-765.00610	417.65048	547.31409	-708.80896	373.59058	538.21204	-801.87872	426.92139	483.78632	-686.69507	421.84604	209.32611	-582.42950	468.23810	164.59213	-542.48395	476.92853	160.04153	-480.09186	426.78149	165.94174	-525.26929	387.45627	176.51266	-647.79315	330.25827	212.09610	-594.61285	350.31952	173.15530	-732.63281	349.38995	164.42148	-443.61359	449.14078	146.88774	-450.81653	75.51505	144.46381	-806.25244	82.71701	142.49893	-799.43811	458.27396	145.28828	
166	3.300	-118.43475	257.50211	1357.05066	-302.99945	46.93229	1242.81433	-333.57516	430.61386	1153.55969	-420.91614	247.14467	1148.20532	-751.65405	141.37384	1008.53687	-710.74634	376.84720	1013.09387	-925.58014	255.65100	1050.07532	-763.61169	91.95941	869.97003	-708.21875	148.77142	825.64691	-792.17285	83.12691	723.00482	-768.46979	120.18974	584.38300	-740.88239	227.51480	546.32312	-783.67694	119.01071	521.50616	-703.50031	169.49538	541.27087	-802.56683	121.01942	446.76364	-695.09302	140.96352	209.22743	-614.97821	79.51073	165.40985	-569.33746	54.76337	163.05180	-492.65347	99.76772	163.11526	-530.87122	148.76607	166.07935	-644.39258	213.95259	227.14270	-593.43530	188.15994	176.57178	-718.68250	211.09918	170.07962	-750.15088	438.21512	862.81378	-703.23590	375.73721	821.40338	-780.44958	453.16360	729.30975	-775.60205	420.07794	605.08423	-730.91071	311.62073	565.68707	-765.35626	417.70355	547.19305	-709.16235	373.63361	538.20728	-802.18188	426.99872	483.69098	-686.64075	421.88684	209.35472	-582.37115	468.17496	164.56705	-542.46393	476.91507	160.04706	-480.08337	426.78671	165.92555	-525.26550	387.36377	176.49370	-647.99969	330.21454	212.22365	-594.60217	350.29663	173.13103	-732.54626	349.44943	164.52132	-443.61179	449.12589	146.89383	-450.80585	75.47672	144.47363	-806.27264	82.71091	142.49147	-799.46014	458.24362	145.33495	
167	3.320	-120.59857	257.63083	1359.09814	-305.42261	46.47452	1246.55469	-334.61951	430.66571	1154.05811	-422.47424	247.20628	1148.65845	-752.03638	141.35982	1009.01868	-711.66235	376.80954	1012.96222	-926.41870	255.94691	1049.83447	-764.30792	92.18961	869.99054	-708.83789	148.88477	825.75531	-792.77502	83.29758	722.99969	-768.85455	120.34007	584.34131	-741.28796	227.63225	546.55176	-783.99945	119.16637	521.43823	-703.86346	169.65828	541.27692	-802.79773	120.96614	446.76190	-695.11102	140.92442	209.28363	-614.95148	79.54311	165.44115	-569.31201	54.71062	163.03459	-492.64938	99.73977	163.10738	-530.91418	148.76060	165.97633	-644.43658	213.99461	227.17908	-593.44470	188.16354	176.57443	-718.68842	211.02475	170.21574	-750.76923	438.34268	862.68384	-703.63318	376.04453	821.45142	-780.91534	453.31097	729.17059	-775.94128	420.25317	605.13110	-731.18683	311.65274	565.60345	-765.70428	417.81839	547.10541	-709.51624	373.68665	538.20856	-802.44116	427.03104	483.62051	-686.57458	421.93872	209.39055	-582.30695	468.10535	164.56418	-542.42596	476.89923	160.04922	-480.07941	426.79999	165.90552	-525.27258	387.23633	176.48232	-648.23737	330.16055	212.34126	-594.59137	350.26227	173.11502	-732.44788	349.51804	164.63280	-443.62167	449.10428	146.89853	-450.79819	75.44927	144.47670	-806.29199	82.70628	142.49197	-799.48438	458.23999	145.39984	
168	3.340	-123.11829	257.85236	1361.78369	-308.02109	46.03479	1250.50781	-335.68414	430.68600	1154.82056	-424.08475	247.29057	1149.27734	-752.30298	141.36446	1009.53687	-712.53247	376.84109	1012.90411	-927.28259	256.25348	1049.57996	-765.02472	92.42551	870.01050	-709.50500	149.01935	825.86420	-793.41058	83.47485	722.99054	-769.28455	120.50330	584.29065	-741.75732	227.74374	546.80078	-784.37769	119.31843	521.35681	-704.25293	169.82935	541.29102	-803.06519	120.93784	446.71854	-695.11334	140.87917	209.36259	-614.92145	79.57618	165.48514	-569.29462	54.66867	163.00366	-492.64609	99.70197	163.08717	-530.98224	148.75867	165.86205	-644.46674	214.03078	227.24005	-593.45050	188.15302	176.56517	-718.69116	210.94580	170.34995	-751.38367	438.45245	862.55597	-704.04901	376.38260	821.53564	-781.36877	453.48044	729.06915	-776.28497	420.38016	605.17877	-731.58606	311.70706	565.49243	-766.06824	418.00958	547.08362	-709.88446	373.74072	538.19843	-802.69244	427.02072	483.56009	-686.50397	421.99362	209.43399	-582.24316	468.03769	164.58858	-542.37219	476.88196	160.04698	-480.08362	426.82053	165.87321	-525.28003	387.08878	176.49072	-648.50415	330.10007	212.44708	-594.58124	350.20572	173.11134	-732.34967	349.58713	164.74837	-443.63986	449.08118	146.89993	-450.79453	75.43724	144.47839	-806.30469	82.70232	142.50291	-799.51086	458.24985	145.47572	
169	3.360	-126.01013	258.15182	1365.12231	-310.79196	45.61449	1254.66406	-336.75980	430.65543	1155.84985	-425.74609	247.39789	1150.06323	-752.45239	141.38832	1010.09039	-713.35370	376.94739	1012.92267	-928.17169	256.57101	1049.31628	-765.75281	92.65816	870.02759	-710.22412	149.17409	825.96826	-794.07434	83.64836	722.99670	-769.76489	120.66576	584.23547	-742.27588	227.84377	547.01855	-784.79865	119.45265	521.26434	-704.67975	169.98582	541.31586	-803.37933	120.94490	446.62665	-695.09546	140.82097	209.46680	-614.88733	79.59997	165.53926	-569.28625	54.63530	162.95932	-492.64645	99.65531	163.05368	-531.07153	148.76073	165.75244	-644.48187	214.04651	227.33113	-593.45514	188.12593	176.54720	-718.69330	210.86124	170.47644	-752.00330	438.55243	862.42621	-704.53558	376.69800	821.62683	-781.83704	453.65845	728.98535	-776.67505	420.43945	605.18042	-732.09442	311.76382	565.35278	-766.46136	418.26758	547.13123	-710.28925	373.78430	538.16541	-802.98529	426.98016	483.49127	-686.43866	422.04095	209.48491	-582.18689	467.97528	164.63396	-542.30908	476.86453	160.04251	-480.09900	426.84351	165.82793	-525.28052	386.94070	176.52708	-648.79645	330.03961	212.53845	-594.57739	350.12198	173.11346	-732.26166	349.64706	164.85916	-443.66205	449.06033	146.89700	-450.79501	75.44122	144.48276	-806.30682	82.69773	142.52419	-799.53955	458.25891	145.54962	
170	3.380	-129.28174	258.49454	1369.09937	-313.73248	45.21497	1259.01367	-337.86099	430.57416	1157.16040	-427.45663	247.52864	1151.01685	-752.48315	141.43204	1010.67828	-714.12347	377.13342	1013.02136	-929.08728	256.89899	1049.04468	-766.48224	92.88426	870.04816	-710.98712	149.34813	826.06866	-794.75745	83.80534	723.03174	-770.29449	120.81227	584.18054	-742.82404	227.92575	547.16797	-785.24487	119.56187	521.16656	-705.14960	170.11151	541.34882	-803.73676	120.98824	446.49249	-695.05927	140.74246	209.59322	-614.84784	79.60377	165.59964	-569.28607	54.60502	162.90704	-492.65369	99.60008	163.00902	-531.17206	148.76675	165.66212	-644.48743	214.02806	227.45042	-593.46179	188.08556	176.52571	-718.70068	210.77065	170.59410	-752.64325	438.65030	862.29236	-705.12836	376.93765	821.68988	-782.34875	453.82681	728.89307	-777.14154	420.43478	605.11383	-732.68652	311.81650	565.18555	-766.89374	418.55740	547.21588	-710.75452	373.81021	538.10864	-803.36426	426.92880	483.39667	-686.38824	422.07089	209.54169	-582.14246	467.91760	164.68611	-542.24561	476.84851	160.03918	-480.12732	426.86105	165.77721	-525.27338	386.81155	176.59157	-649.10919	329.98923	212.61124	-594.58539	350.01541	173.11008	-732.18915	349.69077	164.95705	-443.68408	449.04318	146.89020	-450.79886	75.45761	144.49026	-806.29834	82.69166	142.55209	-799.57043	458.25903	145.60876	
171	3.400	-132.93158	258.83130	1373.66724	-316.83972	44.83762	1263.54712	-339.03262	430.46802	1158.77979	-429.21478	247.68320	1152.13904	-752.39380	141.49623	1011.29956	-714.83905	377.40427	1013.20386	-930.03229	257.23438	1048.76074	-767.20465	93.10678	870.08234	-711.77649	149.54306	826.16583	-795.44904	83.93716	723.09595	-770.86639	120.93256	584.12866	-743.38293	227.98961	547.23248	-785.70160	119.64811	521.07129	-705.65771	170.20383	541.38080	-804.12103	121.06047	446.33289	-695.01233	140.64070	209.73053	-614.80194	79.58115	165.66371	-569.29199	54.57200	162.85648	-492.66962	99.53667	162.95699	-531.27039	148.77635	165.59998	-644.49243	213.97015	227.58646	-593.47180	188.03943	176.50682	-718.71906	210.67638	170.70276	-753.32147	438.75131	862.15607	-705.83466	377.07175	821.69397	-782.92542	453.97195	728.77551	-777.70013	420.39099	604.98334	-733.33777	311.87109	564.99640	-767.37561	418.83273	547.28351	-711.29590	373.82101	538.03723	-803.85126	426.88779	483.26492	-686.35883	422.07846	209.60043	-582.11041	467.86423	164.72888	-542.19110	476.83569	160.03868	-480.16895	426.86490	165.73302	-525.26331	386.71640	176.67484	-649.43658	329.96320	212.65913	-594.60675	349.90128	173.09219	-732.13177	349.71570	165.03694	-443.70291	449.02982	146.88121	-450.80435	75.47926	144.49844	-806.28345	82.68504	142.57913	-799.60321	458.25082	145.64568	
172	3.420	-136.94208	259.10834	1378.74878	-320.11078	44.48381	1268.25488	-340.34637	430.38644	1160.74536	-431.01892	247.86192	1153.43091	-752.18292	141.58148	1011.95313	-715.49750	377.76682	1013.47394	-931.00891	257.57126	1048.45532	-767.91241	93.33422	870.13599	-712.57019	149.76492	826.25323	-796.13605	84.04659	723.17395	-771.46661	121.02829	584.07739	-743.93677	228.04659	547.20813	-786.16046	119.72110	520.98584	-706.18793	170.27583	541.39832	-804.50854	121.15067	446.16882	-694.96393	140.52225	209.86047	-614.74927	79.53416	165.73169	-569.30127	54.53305	162.81830	-492.69339	99.46661	162.90186	-531.35431	148.78854	165.56699	-644.50525	213.88232	227.71860	-593.48236	187.99701	176.49519	-718.74896	210.58485	170.79846	-754.05219	438.86035	862.02490	-706.63037	377.10944	821.62689	-783.57495	454.09378	728.63757	-778.35419	420.34406	604.81049	-734.02734	311.94193	564.79895	-767.91803	419.05457	547.28094	-711.91290	373.83014	537.96472	-804.43732	426.87482	483.09442	-686.35187	422.06580	209.65538	-582.08820	467.81870	164.74956	-542.15289	476.82785	160.03883	-480.22284	426.84982	165.70567	-525.25708	386.66397	176.75920	-649.77216	329.98041	212.67383	-594.63782	349.80249	173.05872	-732.08636	349.72409	165.09828	-443.71658	449.02023	146.87238	-450.80930	75.49764	144.50441	-806.27002	82.68150	142.59518	-799.63635	458.24063	145.66042	
